<svg xmlns="http://www.w3.org/2000/svg" width="16" height="16" viewBox="0 0 16 16">
  <g id="그룹_65500" data-name="그룹 65500" transform="translate(-437 -814)">
    <g id="Oval_2" data-name="Oval 2" transform="translate(438 815)" fill="#fff" stroke="red" stroke-miterlimit="10" stroke-width="1">
      <circle cx="7" cy="7" r="7" stroke="none"/>
      <circle cx="7" cy="7" r="7.5" fill="none"/>
    </g>
    <path id="Combined_Shape" data-name="Combined Shape" d="M1,6A1,1,0,1,1,2,7,1,1,0,0,1,1,6Zm.6-2a1,1,0,0,1-.884-.531L.233,2.555A2,2,0,0,1,0,1.617V0A1,1,0,0,1,1-1H3A1,1,0,0,1,4,0V1.657a2,2,0,0,1-.245.959l-.471.863A1,1,0,0,1,2.407,4Z" transform="translate(443 819)" fill="red"/>
  </g>
</svg>
